<svg xmlns="http://www.w3.org/2000/svg" viewBox="0 0 745.05 175.01"><defs><style>.cls-1{fill:#fff;}</style></defs><title>mode_logo_horizontal_white</title><g id="Layer_2" data-name="Layer 2"><g id="Layer_1-2" data-name="Layer 1"><path class="cls-1" d="M315.81,2.09c-47.52,0-86.9,38.94-86.9,86.46,0,49.28,38.94,86.46,86.9,86.46s86.9-37.18,86.9-86.46C402.71,41,363.33,2.09,315.81,2.09Zm0,153.56c-35.86,0-66.22-29.26-66.22-67.1,0-36.52,27.28-67.1,66.22-67.1S382,52,382,88.55C382,126.39,351.67,155.65,315.81,155.65Z"/><rect class="cls-1" x="625.05" y="5.59" width="120" height="18.94"/><rect class="cls-1" x="625.05" y="79.07" width="120" height="18.94"/><rect class="cls-1" x="625.05" y="152.56" width="120" height="18.94"/><path class="cls-1" d="M489.26,5.61H444.94V171.49H488.6c52.36,0,93.72-27.28,93.72-83.82C582.32,32.44,540.08,5.61,489.26,5.61Zm-6.38,147H465.62v-128h17.26c42.24,0,78.76,15.62,78.76,64C561.64,136.73,525.12,152.57,482.88,152.57Z"/><path class="cls-1" d="M164.66.81a1.17,1.17,0,0,0-2-.35L100,87.58,37.39.46a1.17,1.17,0,0,0-2,.35L0,171.09H200Zm-141.57,153,22-107.16h.5l53.51,74.81a1.21,1.21,0,0,0,1.88,0l53.51-74.81h.5l22,107.16Z"/></g></g></svg>