<svg xmlns="http://www.w3.org/2000/svg" viewBox="0 0 100 100"><defs><style>.cls-1{fill:#fff;}</style></defs><title>mode_sq_w</title><g id="Layer_2" data-name="Layer 2"><g id="Layer_1-2" data-name="Layer 1"><path class="cls-1" d="M97,100H3a3,3,0,0,1-3-3V3A3,3,0,0,1,3,0H97a3,3,0,0,1,3,3V97A3,3,0,0,1,97,100ZM3,3V97H97V3Z"/><path class="cls-1" d="M71.22,14.31A16.18,16.18,0,0,0,55.08,30.37a16.14,16.14,0,0,0,32.28,0A16.18,16.18,0,0,0,71.22,14.31Zm0,28.52a12.37,12.37,0,0,1-12.3-12.46,12.3,12.3,0,1,1,24.6,0A12.37,12.37,0,0,1,71.22,42.83Z"/><rect class="cls-1" x="58.3" y="54.87" width="25.84" height="3.52"/><rect class="cls-1" x="58.3" y="68.52" width="25.84" height="3.52"/><rect class="cls-1" x="58.3" y="82.18" width="25.84" height="3.52"/><path class="cls-1" d="M28.17,54.88H18.08V85.69h10c9.72,0,17.41-5.07,17.41-15.57C45.46,59.86,37.61,54.88,28.17,54.88ZM27,82.18H21.92V58.39H27c7.84,0,14.63,2.9,14.63,11.89S34.83,82.18,27,82.18Z"/><path class="cls-1" d="M43.22,14.47a.21.21,0,0,0-.38-.06L31.21,30.59,19.58,14.41a.22.22,0,0,0-.38.06L12.64,46.1H49.79ZM16.92,42.89,21,23h.1L31,36.88a.22.22,0,0,0,.35,0L41.33,23h.09l4.08,19.9Z"/></g></g></svg>